<svg version="1.0" xmlns="http://www.w3.org/2000/svg"
 width="600.000000pt" height="400.000000pt" viewBox="0 0 600.000000 400.000000"
 preserveAspectRatio="xMidYMid meet">
<defs>
  <linearGradient id="goldGrad" x1="0%" y1="0%" x2="0%" y2="100%">
    <stop offset="0%" style="stop-color:#FFD700;stop-opacity:1" />
    <stop offset="50%" style="stop-color:#C9960C;stop-opacity:1" />
    <stop offset="100%" style="stop-color:#8B6914;stop-opacity:1" />
  </linearGradient>
</defs>
<g transform="translate(0.000000,400.000000) scale(0.100000,-0.100000)"
fill="url(#goldGrad)" stroke="none">
<path d="M2994 3165 c0 -93 2 -133 3 -88 2 45 2 122 0 170 -1 48 -3 12 -3 -82z"/>
<path d="M2607 3293 c-4 -3 -3 -11 2 -17 6 -6 42 -104 81 -216 66 -188 89
-247 90 -228 0 14 -155 457 -164 465 -1 2 -6 0 -9 -4z"/>
<path d="M2820 3275 c0 -28 53 -301 60 -314 8 -12 9 -10 5 9 -2 14 -16 88 -31
165 -22 121 -34 170 -34 140z"/>
<path d="M3186 3263 c-9 -28 -66 -306 -66 -322 0 -8 2 -12 5 -9 7 6 75 342 70
346 -2 2 -6 -5 -9 -15z"/>
<path d="M3358 3225 c-3 -16 -23 -73 -43 -125 -60 -155 -116 -315 -106 -305 8
9 57 136 138 358 13 37 23 76 21 85 -3 11 -6 6 -10 -13z"/>
<path d="M2916 3212 c-2 -4 -1 -14 3 -21 6 -10 10 -9 14 3 6 16 -8 32 -17 18z"/>
<path d="M2480 3194 c0 -2 24 -50 53 -106 30 -57 87 -167 127 -245 40 -79 75
-141 78 -139 2 3 -50 111 -117 241 -67 130 -120 239 -117 244 3 4 -1 8 -9 8
-8 0 -15 -2 -15 -3z"/>
<path d="M3066 3139 c-8 -76 -8 -104 0 -97 8 9 21 158 13 158 -3 0 -9 -28 -13
-61z"/>
<path d="M3251 3161 c-10 -6 -9 -10 3 -14 8 -3 18 -2 21 3 8 13 -9 20 -24 11z"/>
<path d="M3472 3127 c-61 -109 -213 -407 -209 -407 10 0 242 439 235 445 -2 2
-14 -15 -26 -38z"/>
<path d="M2923 3090 c0 -30 2 -43 4 -27 2 15 2 39 0 55 -2 15 -4 2 -4 -28z"/>
<path d="M3536 3034 c-38 -57 -73 -101 -79 -97 -6 3 -7 1 -3 -5 4 -7 -23 -58
-62 -117 -38 -57 -62 -101 -55 -96 8 4 34 39 59 77 28 45 44 62 44 49 1 -20 1
-20 12 0 6 11 12 29 13 40 1 20 128 224 147 236 6 4 6 9 1 12 -4 3 -39 -42
-77 -99z"/>
<path d="M2312 3102 c90 -122 192 -252 198 -252 4 0 12 -12 19 -26 11 -25 129
-183 159 -214 32 -32 -10 30 -95 144 -58 76 -64 96 -30 97 l22 0 -22 9 c-13 5
-23 14 -23 20 0 6 5 8 11 4 7 -4 6 2 -2 17 -18 35 -89 139 -94 139 -5 0 33
-64 68 -113 l20 -29 -22 -21 c-11 -12 -21 -16 -21 -10 0 6 -39 60 -86 120 -47
59 -88 114 -91 121 -3 6 -9 12 -15 12 -5 0 -3 -8 4 -18z"/>
<path d="M2766 3055 c-3 -8 -1 -15 4 -15 6 0 10 -8 11 -17 0 -13 3 -12 10 5 9
24 5 42 -11 42 -4 0 -10 -7 -14 -15z"/>
<path d="M3678 3027 c-242 -294 -333 -411 -306 -389 9 8 87 101 173 207 85
106 161 195 167 197 8 3 8 7 2 11 -6 3 -22 -9 -36 -26z"/>
<path d="M3214 3039 c-3 -6 -15 -43 -25 -83 -13 -51 -15 -74 -7 -81 7 -7 9 -6
5 1 -4 7 4 48 17 93 22 79 25 93 10 70z"/>
<path d="M3616 3032 c-3 -5 1 -9 9 -9 8 0 12 4 9 9 -3 4 -7 8 -9 8 -2 0 -6 -4
-9 -8z"/>
<path d="M2797 2968 c3 -18 12 -46 20 -63 7 -16 11 -22 8 -12 -3 10 -8 36 -11
58 -4 22 -10 42 -15 45 -5 3 -6 -10 -2 -28z"/>
<path d="M2655 2970 c-3 -5 -1 -10 4 -10 6 0 11 5 11 10 0 6 -2 10 -4 10 -3 0
-8 -4 -11 -10z"/>
<path d="M2160 2939 c0 -11 4 -18 10 -14 5 3 7 12 3 20 -7 21 -13 19 -13 -6z"/>
<path d="M3320 2950 c0 -5 5 -10 11 -10 5 0 7 5 4 10 -3 6 -8 10 -11 10 -2 0
-4 -4 -4 -10z"/>
<path d="M3416 2943 c-6 -14 -5 -15 5 -6 7 7 10 15 7 18 -3 3 -9 -2 -12 -12z"/>
<path d="M3540 2949 c0 -5 5 -7 10 -4 6 3 10 8 10 11 0 2 -4 4 -10 4 -5 0 -10
-5 -10 -11z"/>
<path d="M2997 2922 c-10 -10 -17 -24 -17 -30 0 -7 -12 -9 -34 -5 -39 6 -49
-6 -61 -70 -5 -26 -12 -37 -25 -37 -44 0 -65 -56 -91 -250 -31 -223 -30 -334
6 -435 32 -93 42 -199 26 -275 -6 -29 -9 -55 -7 -57 11 -11 27 85 27 158 l0
79 29 -15 c16 -8 35 -15 42 -15 7 0 -3 8 -22 18 -76 37 -119 201 -101 377 33
312 47 377 81 395 27 14 33 -1 26 -68 -3 -31 -9 -95 -12 -142 -3 -49 -10 -88
-17 -92 -22 -14 16 -8 48 8 22 11 24 13 8 10 -21 -4 -23 0 -23 38 0 86 21 312
32 339 6 15 16 27 24 27 30 0 34 -36 22 -205 -11 -160 -11 -168 7 -181 22 -16
35 -18 35 -4 0 6 -7 10 -17 10 -14 0 -15 14 -9 143 9 203 15 250 32 267 14 13
17 13 30 -5 13 -17 14 -50 8 -217 -6 -185 -6 -198 11 -198 14 0 15 3 6 14 -9
10 -10 47 -6 128 10 193 14 218 35 218 30 0 38 -50 45 -283 l6 -217 -31 -18
c-18 -9 -43 -25 -56 -35 -26 -20 -79 -115 -70 -125 3 -3 15 15 26 40 22 51 39
68 96 96 43 22 54 45 54 114 0 19 4 27 11 22 7 -4 7 1 -1 16 -26 48 29 140 83
140 16 0 18 -4 12 -22 -4 -13 -11 -108 -15 -213 -4 -104 -12 -204 -17 -220
-31 -92 -79 -152 -135 -165 -28 -7 -29 -8 -8 -9 14 0 36 5 50 12 l25 13 1
-125 c0 -69 5 -136 10 -148 6 -15 9 27 9 130 0 151 0 153 31 212 45 86 53 137
57 352 4 174 2 192 -13 196 -30 8 -80 -21 -94 -54 -12 -29 -14 -19 -18 113 -3
118 -8 151 -22 173 -12 18 -24 25 -36 22 -13 -3 -20 2 -24 18 -6 24 -31 55
-45 55 -4 0 -15 -8 -24 -18z"/>
<path d="M3685 2920 c-3 -5 1 -10 9 -10 9 0 16 5 16 10 0 6 -4 10 -9 10 -6 0
-13 -4 -16 -10z"/>
<path d="M3720 2828 c-236 -204 -355 -311 -359 -322 -2 -6 11 3 30 19 19 17
97 84 174 150 77 66 158 136 180 156 22 20 54 48 70 62 17 14 28 28 25 30 -3
3 -57 -40 -120 -95z"/>
<path d="M2320 2917 c0 -5 53 -66 119 -135 65 -70 139 -149 164 -177 26 -27
47 -47 47 -42 0 4 -35 47 -79 95 -120 134 -250 268 -251 259z"/>
<path d="M2580 2901 c0 -6 4 -13 10 -16 6 -3 7 1 4 9 -7 18 -14 21 -14 7z"/>
<path d="M3627 2866 c-3 -8 -2 -18 3 -21 13 -8 20 9 11 24 -6 10 -10 9 -14 -3z"/>
<path d="M2221 2864 c1 -15 429 -395 429 -381 0 4 -169 157 -392 356 -21 18
-38 29 -37 25z"/>
<path d="M2710 2860 c0 -8 5 -22 10 -30 9 -13 10 -13 10 0 0 8 -5 22 -10 30
-9 13 -10 13 -10 0z"/>
<path d="M2611 2790 c17 -27 33 -50 35 -50 3 0 -7 23 -22 50 -15 28 -31 50
-35 50 -5 0 5 -22 22 -50z"/>
<path d="M2326 2813 c-6 -14 -5 -15 5 -6 7 7 10 15 7 18 -3 3 -9 -2 -12 -12z"/>
<path d="M2080 2806 c0 -11 548 -391 555 -385 4 4 -78 62 -364 262 -158 110
-191 131 -191 123z"/>
<path d="M3880 2803 c-30 -12 -410 -280 -410 -289 0 -9 45 19 79 48 23 21 36
26 41 18 5 -8 9 -4 13 10 4 15 10 19 19 14 7 -4 10 -4 6 1 -6 6 115 96 259
192 19 13 17 15 -7 6z"/>
<path d="M2370 2776 c0 -2 8 -10 18 -17 15 -13 16 -12 3 4 -13 16 -21 21 -21
13z"/>
<path d="M3510 2725 c-11 -13 -10 -14 4 -9 9 3 16 10 16 15 0 13 -6 11 -20 -6z"/>
<path d="M2275 2720 c-3 -5 -1 -10 4 -10 6 0 11 5 11 10 0 6 -2 10 -4 10 -3 0
-8 -4 -11 -10z"/>
<path d="M2656 2718 c3 -5 10 -6 15 -3 13 9 11 12 -6 12 -8 0 -12 -4 -9 -9z"/>
<path d="M3940 2711 c-90 -46 -265 -140 -355 -191 -55 -31 -124 -70 -153 -85
-28 -16 -50 -30 -48 -32 5 -5 241 120 422 223 65 37 136 75 158 85 23 10 34
18 26 18 -8 0 -31 -8 -50 -18z"/>
<path d="M2080 2665 c0 -3 18 -12 39 -21 22 -9 39 -21 37 -27 -1 -7 -1 -9 1
-5 3 4 27 -4 54 -18 30 -15 47 -29 43 -36 -4 -7 -3 -8 4 -4 6 4 25 0 43 -9 17
-9 33 -15 35 -12 4 4 -237 137 -249 137 -4 0 -7 -2 -7 -5z"/>
<path d="M2990 2650 c0 -5 5 -10 11 -10 5 0 7 5 4 10 -3 6 -8 10 -11 10 -2 0
-4 -4 -4 -10z"/>
<path d="M2223 2643 c-17 -6 -17 -20 0 -20 8 0 14 6 14 14 0 7 -1 13 -1 12 -1
0 -7 -3 -13 -6z"/>
<path d="M2910 2630 c0 -5 5 -10 11 -10 5 0 7 5 4 10 -3 6 -8 10 -11 10 -2 0
-4 -4 -4 -10z"/>
<path d="M3938 2621 c-1 -13 -10 -27 -18 -31 -8 -4 -25 -12 -37 -19 -23 -11
-378 -165 -422 -182 -13 -5 -22 -12 -19 -15 3 -2 110 40 237 95 128 55 239 97
247 94 8 -3 14 -17 14 -32 1 -26 1 -26 15 6 9 22 22 33 42 36 l28 4 -28 2
c-21 1 -31 9 -42 33 -12 30 -13 31 -17 9z"/>
<path d="M4005 2621 c-22 -11 -33 -20 -25 -20 8 0 31 8 50 19 45 25 27 25 -25
1z"/>
<path d="M2030 2579 c171 -74 597 -249 606 -249 5 0 2 5 -6 9 -30 18 -691 291
-703 291 -6 0 40 -23 103 -51z"/>
<path d="M2355 2521 c3 -6 1 -11 -4 -11 -6 0 -11 -5 -11 -11 0 -8 4 -8 14 1
12 9 25 6 63 -15 26 -15 39 -19 28 -10 -28 23 -99 59 -90 46z"/>
<path d="M2088 2513 c7 -3 16 -2 19 1 4 3 -2 6 -13 5 -11 0 -14 -3 -6 -6z"/>
<path d="M3878 2473 c7 -3 16 -2 19 1 4 3 -2 6 -13 5 -11 0 -14 -3 -6 -6z"/>
<path d="M4109 2476 c-4 -4 -342 -86 -354 -86 -3 0 -5 7 -5 15 0 8 -4 15 -10
15 -5 0 -10 -6 -10 -14 0 -21 -52 -41 -203 -76 -76 -18 -136 -35 -133 -37 4
-4 179 33 284 61 36 9 53 10 56 2 2 -7 9 -5 17 5 8 10 84 34 183 58 173 44
224 59 195 60 -9 1 -18 -1 -20 -3z"/>
<path d="M2001 2466 c5 -6 569 -166 582 -166 27 0 -20 15 -280 90 -257 73
-314 88 -302 76z"/>
<path d="M3755 2450 c-3 -5 -1 -10 4 -10 6 0 11 5 11 10 0 6 -2 10 -4 10 -3 0
-8 -4 -11 -10z"/>
<path d="M3665 2420 c-25 -11 1 -11 35 0 20 6 21 8 5 8 -11 0 -29 -3 -40 -8z"/>
<path d="M2171 2352 c0 -12 -7 -25 -14 -28 -8 -3 -69 4 -137 16 -67 11 -124
19 -127 16 -5 -5 19 -10 117 -26 116 -19 150 -32 157 -60 l7 -25 6 25 c7 30
-6 30 227 -4 183 -26 220 -30 212 -21 -3 2 -88 16 -189 30 -199 28 -246 42
-253 78 l-4 22 -2 -23z"/>
<path d="M3970 2314 c-310 -38 -557 -73 -485 -68 116 7 576 64 600 74 25 11
24 11 -115 -6z"/>
<path d="M2040 2260 c0 -5 5 -10 11 -10 5 0 7 5 4 10 -3 6 -8 10 -11 10 -2 0
-4 -4 -4 -10z"/>
<path d="M3087 2249 c7 -7 15 -10 18 -7 3 3 -2 9 -12 12 -14 6 -15 5 -6 -5z"/>
<path d="M3703 2200 c-166 -3 -306 -9 -310 -14 -8 -8 757 0 765 9 8 8 -166 10
-455 5z"/>
<path d="M2175 2190 c176 -3 340 -2 365 1 25 4 -119 6 -320 5 l-365 0 320 -6z"/>
<path d="M2450 2134 c-407 -54 -484 -65 -489 -70 -7 -7 -2 -7 369 41 151 20
280 37 285 40 21 8 -65 2 -165 -11z"/>
<path d="M3625 2108 c290 -34 323 -41 334 -70 8 -21 8 -21 14 1 5 22 10 23 66
19 34 -2 56 -1 49 4 -7 4 -29 8 -49 8 -40 0 -65 16 -72 45 -4 18 -5 18 -6 -2
0 -12 -5 -24 -10 -27 -5 -4 -119 7 -253 24 -133 16 -261 29 -283 29 -22 -1 73
-14 210 -31z"/>
<path d="M2519 2086 c-47 -13 -91 -26 -97 -30 -6 -3 -14 -1 -18 5 -4 7 -9 8
-13 1 -7 -12 -292 -93 -337 -95 -18 -1 -30 -5 -28 -9 2 -3 -22 -12 -53 -19
-32 -6 -53 -14 -46 -16 7 -2 107 21 224 51 228 60 239 62 239 44 0 -6 10 -2
23 9 12 12 58 31 102 43 44 12 91 26 105 30 55 18 -17 8 -101 -14z"/>
<path d="M3360 2097 c5 -5 52 -18 468 -133 262 -72 323 -83 127 -23 -217 67
-608 170 -595 156z"/>
<path d="M1910 2066 c-8 -10 -7 -15 6 -20 21 -8 21 -8 27 8 8 19 -19 28 -33
12z"/>
<path d="M2472 2019 c-29 -12 -52 -23 -50 -25 4 -3 109 34 117 42 9 9 -16 2
-67 -17z"/>
<path d="M2441 1954 c-95 -46 -178 -81 -184 -77 -5 3 -7 2 -4 -4 3 -5 -21 -23
-53 -38 -33 -16 -60 -33 -60 -38 0 -5 3 -7 8 -5 4 2 117 59 252 126 135 67
238 121 230 121 -8 0 -93 -38 -189 -85z"/>
<path d="M3370 2017 c15 -15 476 -257 489 -257 3 0 -2 5 -12 11 -9 6 -14 15
-11 21 4 7 2 8 -4 4 -7 -4 -74 26 -149 67 -210 112 -330 171 -313 154z"/>
<path d="M3440 2028 c9 -11 204 -88 213 -85 5 1 -33 19 -84 40 -116 45 -135
52 -129 45z"/>
<path d="M2635 1978 c-16 -12 -66 -49 -110 -81 -43 -32 -86 -62 -95 -67 -8 -5
-12 -12 -8 -15 4 -4 13 -2 20 4 7 7 60 46 118 88 118 85 128 93 115 93 -6 0
-23 -10 -40 -22z"/>
<path d="M3898 1993 c7 -3 16 -2 19 1 4 3 -2 6 -13 5 -11 0 -14 -3 -6 -6z"/>
<path d="M3320 1976 c47 -43 232 -187 236 -183 5 5 -229 197 -242 197 -4 0 -2
-6 6 -14z"/>
<path d="M2368 1973 c7 -3 16 -2 19 1 4 3 -2 6 -13 5 -11 0 -14 -3 -6 -6z"/>
<path d="M2240 1941 c0 -6 5 -13 10 -16 6 -3 10 1 10 9 0 9 -4 16 -10 16 -5 0
-10 -4 -10 -9z"/>
<path d="M2622 1874 c-18 -19 -37 -32 -41 -30 -4 3 -8 -1 -8 -9 0 -8 3 -15 7
-15 9 0 84 79 79 84 -2 3 -19 -11 -37 -30z"/>
<path d="M2657 1833 c-31 -40 -53 -73 -49 -73 13 0 119 138 111 144 -2 2 -30
-30 -62 -71z"/>
<path d="M3348 1883 c11 -16 37 -44 58 -63 30 -28 33 -29 17 -8 -55 73 -122
137 -75 71z"/>
<path d="M3296 1864 c9 -17 32 -49 51 -70 l34 -39 -30 46 c-17 26 -28 49 -26
53 3 3 2 4 -1 1 -4 -2 -15 6 -26 18 l-19 22 17 -31z"/>
<path d="M2345 1860 c-3 -6 1 -7 9 -4 18 7 21 14 7 14 -6 0 -13 -4 -16 -10z"/>
<path d="M1700 1681 c-101 -21 -140 -105 -64 -137 46 -19 52 -18 26 6 -69 65
37 135 162 108 84 -18 131 -105 107 -195 -14 -53 -40 -74 -96 -81 l-47 -5 4
132 c3 128 2 132 -17 127 -11 -3 -29 -6 -40 -7 -11 0 -14 -3 -7 -6 9 -3 12
-38 12 -125 l0 -120 -30 4 c-16 3 -30 1 -30 -2 0 -4 30 -10 68 -14 88 -9 165
8 206 44 29 27 31 33 31 97 0 58 -4 74 -25 100 -14 18 -43 41 -66 53 -45 22
-140 33 -194 21z m270 -141 c0 -5 -4 -10 -10 -10 -5 0 -10 5 -10 10 0 6 5 10
10 10 6 0 10 -4 10 -10z m0 -50 c0 -16 -2 -30 -4 -30 -2 0 -6 14 -8 30 -3 17
-1 30 4 30 4 0 8 -13 8 -30z"/>
<path d="M2715 1629 c-46 -4 -55 -8 -37 -14 21 -7 22 -12 22 -121 0 -62 -4
-115 -8 -118 -5 -3 -18 -2 -30 1 -19 5 -22 12 -22 64 0 65 -12 79 -69 79 -43
0 -61 -10 -61 -33 0 -21 0 -21 20 1 24 26 43 28 60 7 19 -23 5 -42 -39 -49
-43 -6 -66 -32 -55 -60 8 -21 44 -29 76 -17 15 6 29 6 35 0 16 -16 227 -13
261 5 97 50 97 193 1 238 -44 21 -80 25 -154 17z m110 -23 c18 -8 38 -23 43
-33 28 -55 18 -155 -19 -185 -12 -10 -38 -18 -60 -18 l-39 0 0 125 c0 140 1
142 75 111z m-222 -181 c-10 -47 -63 -61 -63 -16 0 14 10 23 33 30 17 5 33 10
33 10 1 1 -1 -10 -3 -24z"/>
<path d="M2024 1619 c-3 -6 1 -18 10 -27 15 -15 17 -15 32 0 19 19 11 38 -16
38 -10 0 -22 -5 -26 -11z"/>
<path d="M3423 1612 c-32 -3 -47 -22 -18 -22 12 0 15 -19 15 -115 0 -108 1
-115 20 -115 18 0 20 7 20 55 0 45 4 56 21 65 37 20 49 6 49 -60 l0 -60 33 1
c17 0 26 3 20 6 -9 3 -13 27 -13 69 0 60 -1 64 -26 70 -14 4 -37 1 -50 -5 -14
-6 -27 -11 -30 -11 -3 0 -4 27 -3 60 1 33 1 61 -2 63 -2 1 -19 1 -36 -1z"/>
<path d="M2031 1523 c-18 -4 -21 -7 -11 -13 9 -6 13 -25 11 -55 -3 -72 4 -85
47 -84 20 1 29 3 20 6 -15 4 -18 16 -18 79 0 53 -3 74 -12 73 -7 -1 -24 -4
-37 -6z"/>
<path d="M2115 1521 c-25 -6 -27 -8 -10 -12 13 -4 29 -27 44 -65 44 -108 56
-110 102 -9 20 44 40 74 49 75 9 0 32 -32 55 -75 44 -81 43 -96 -8 -125 -21
-12 -32 -12 -57 -3 -17 6 -32 7 -36 2 -21 -34 62 -39 114 -7 27 17 45 42 78
112 38 82 41 92 26 104 -22 16 -33 15 -25 -3 6 -18 -16 -105 -27 -105 -5 0
-18 25 -31 55 -12 30 -25 55 -28 56 -3 0 -31 1 -61 2 -54 2 -56 1 -53 -23 2
-14 -5 -43 -15 -64 l-18 -39 -24 63 c-14 35 -30 64 -35 65 -6 2 -23 0 -40 -4z"/>
<path d="M2983 1508 c-13 -6 -23 -17 -23 -25 0 -17 15 -17 30 2 7 8 23 15 36
15 18 0 24 -5 24 -23 0 -19 -8 -25 -45 -35 -48 -13 -65 -34 -48 -61 12 -20 55
-26 82 -12 13 7 22 8 26 1 8 -13 55 -13 55 0 0 6 -4 10 -10 10 -5 0 -10 23
-10 50 0 78 -50 111 -117 78z m73 -89 c1 -21 -16 -39 -37 -39 -24 0 -25 35 -1
49 21 13 37 9 38 -10z"/>
<path d="M3211 1504 c-18 -13 -25 -14 -31 -4 -6 9 -15 10 -36 2 -16 -6 -23
-11 -16 -11 8 -1 12 -21 12 -67 0 -62 1 -65 22 -62 20 3 22 8 20 46 -4 54 18
85 55 76 20 -6 24 -3 21 11 -4 25 -19 28 -47 9z"/>
<path d="M3293 1510 c-38 -15 -30 -55 17 -86 22 -15 40 -33 40 -40 0 -17 -51
-19 -68 -2 -9 9 -12 8 -12 -4 0 -36 88 -31 119 6 18 21 -5 58 -48 76 -17 7
-31 19 -31 26 0 17 42 18 58 2 9 -9 12 -8 12 4 0 27 -43 35 -87 18z"/>
<path d="M3620 1495 c-19 -23 -2 -37 20 -15 25 25 37 25 51 -1 13 -25 -1 -39
-38 -39 -34 0 -66 -36 -53 -59 8 -17 21 -19 92 -19 46 1 75 3 66 5 -15 4 -18
16 -18 63 0 48 -4 61 -19 70 -29 15 -87 12 -101 -5z m80 -85 c0 -21 -34 -45
-50 -35 -24 15 -1 55 32 55 11 0 18 -7 18 -20z"/>
<path d="M3785 1499 c-16 -4 -24 -7 -17 -8 8 -1 12 -21 12 -66 0 -63 1 -65 25
-65 25 0 26 3 24 48 -3 58 4 72 37 72 23 0 24 -3 24 -60 l0 -60 31 0 c25 0 29
3 20 14 -6 7 -10 36 -9 64 3 68 -9 80 -64 65 -24 -6 -45 -8 -48 -4 -3 4 -18 4
-35 0z"/>
<path d="M3993 1503 c-7 -2 -13 -14 -13 -26 1 -20 2 -20 13 -5 13 16 29 22 55
19 21 -2 10 -45 -13 -49 -53 -8 -76 -24 -73 -51 2 -21 9 -27 36 -29 19 -2 44
4 57 12 21 14 24 14 19 1 -5 -12 1 -15 27 -14 19 0 28 3 22 6 -8 3 -13 25 -13
58 0 44 -4 57 -22 69 -22 15 -69 20 -95 9z m54 -120 c-8 -9 -20 -12 -26 -9
-19 12 -12 42 12 53 18 9 23 7 25 -10 2 -11 -3 -26 -11 -34z"/>
<path d="M4158 1502 c-26 -3 -41 -22 -18 -22 6 0 10 -27 10 -60 0 -56 2 -60
23 -60 20 0 22 5 22 51 0 55 17 78 49 66 12 -5 16 -20 16 -62 0 -48 2 -55 20
-55 17 0 20 7 20 48 0 50 12 72 42 72 14 0 18 -11 20 -57 l3 -58 35 -2 c19 -1
29 0 23 3 -8 4 -13 26 -13 59 0 35 -5 59 -16 69 -19 19 -16 19 -61 1 -33 -14
-38 -14 -45 0 -11 19 -47 19 -75 0 -16 -12 -22 -12 -25 -3 -2 8 -15 12 -30 10z"/>
<path d="M4466 1423 c-6 -14 -5 -15 5 -6 7 7 10 15 7 18 -3 3 -9 -2 -12 -12z"/>
<path d="M2071 1251 c-20 -13 84 -49 178 -62 80 -11 168 -7 316 17 50 7 108
15 130 17 32 3 30 4 -15 5 -30 1 -104 -5 -165 -14 -120 -18 -321 -15 -365 4
-20 9 -12 10 40 4 88 -10 223 -6 301 8 145 27 329 8 329 -34 0 -22 -17 -28
-41 -15 -17 9 -20 8 -17 -3 3 -7 19 -14 36 -16 40 -4 61 27 34 51 -48 44 -169
56 -332 33 -165 -23 -325 -20 -400 8 -8 3 -21 2 -29 -3z m44 -11 c13 -6 15 -9
5 -9 -8 0 -22 4 -30 9 -18 12 -2 12 25 0z"/>
<path d="M3262 1250 c-57 -9 -102 -33 -102 -54 0 -38 81 -49 88 -12 4 19 3 19
-13 2 -20 -20 -39 -17 -43 8 -9 46 137 59 364 30 100 -13 147 -15 205 -7 l74
9 -115 1 c-63 1 -144 6 -180 12 -100 15 -219 20 -278 11z"/>
<path d="M3890 1239 c11 -8 6 -9 -20 -5 -24 4 -29 3 -15 -3 16 -7 10 -10 -33
-20 -72 -15 -216 -14 -337 4 -55 8 -125 14 -155 13 l-55 -1 65 -7 c36 -4 123
-16 194 -25 108 -15 143 -15 218 -6 94 12 172 37 162 52 -3 5 -13 9 -22 9 -15
0 -15 -2 -2 -11z"/>
<path d="M2994 1214 c-10 -14 -35 -29 -54 -34 l-35 -8 33 -1 c18 -1 41 -10 53
-22 l21 -21 22 21 c12 12 31 21 42 22 18 0 17 1 -2 9 -12 4 -30 20 -41 34
l-20 25 -19 -25z m37 -48 c-10 -12 -17 -13 -31 -3 -18 10 -18 13 -3 29 15 17
18 17 31 4 12 -12 13 -18 3 -30z"/>
<path d="M2870 1190 c0 -5 5 -10 10 -10 6 0 10 5 10 10 0 6 -4 10 -10 10 -5 0
-10 -4 -10 -10z"/>
<path d="M3120 1190 c0 -5 5 -10 11 -10 5 0 7 5 4 10 -3 6 -8 10 -11 10 -2 0
-4 -4 -4 -10z"/>
</g>
</svg>